<?xml version="1.0" encoding="UTF-8" standalone="no"?>
<!-- Created with Inkscape (http://www.inkscape.org/) -->

<svg
   width="2000"
   height="2000"
   viewBox="0 0 529.16667 529.16668"
   version="1.1"
   id="svg5"
   inkscape:version="1.1 (c68e22c387, 2021-05-23)"
   sodipodi:docname="drawing.svg"
   xmlns:inkscape="http://www.inkscape.org/namespaces/inkscape"
   xmlns:sodipodi="http://sodipodi.sourceforge.net/DTD/sodipodi-0.dtd"
   xmlns="http://www.w3.org/2000/svg"
   xmlns:svg="http://www.w3.org/2000/svg">
  <sodipodi:namedview
     id="namedview7"
     pagecolor="#ffffff"
     bordercolor="#666666"
     borderopacity="1.0"
     inkscape:pageshadow="2"
     inkscape:pageopacity="0.0"
     inkscape:pagecheckerboard="0"
     inkscape:document-units="px"
     showgrid="false"
     width="200px"
     inkscape:snap-bbox="true"
     inkscape:zoom="0.5"
     inkscape:cx="1205"
     inkscape:cy="1130"
     inkscape:window-width="3840"
     inkscape:window-height="2050"
     inkscape:window-x="-12"
     inkscape:window-y="3768"
     inkscape:window-maximized="1"
     inkscape:current-layer="layer1" />
  <defs
     id="defs2" />
  <g
     inkscape:label="Layer 1"
     inkscape:groupmode="layer"
     id="layer1">
    <path
       id="XMLID_792_"
       style="fill:#ffffff;stroke:none;stroke-width:0.999999"
       d="M 1000 122.39453 C 674.37269 122.39453 409.45312 387.30975 409.45312 712.94141 L 409.45312 807.23828 C 329.82114 867.15471 278.2207 962.42444 278.2207 1069.5234 C 278.2207 1250.4274 425.39425 1397.6055 606.30273 1397.6055 C 642.54028 1397.6055 671.91797 1368.2278 671.91797 1331.9902 L 671.91797 807.05859 C 671.91797 770.82086 642.54028 741.44336 606.30273 741.44336 C 583.83571 741.44336 561.8927 743.72045 540.68555 748.04688 L 540.68555 712.94922 C 540.68555 459.68357 746.73435 253.63477 1000 253.63477 C 1253.2656 253.63477 1459.3145 459.68357 1459.3145 712.94922 L 1459.3145 748.04688 C 1438.1073 743.72045 1416.1643 741.44336 1393.6973 741.44336 C 1357.4596 741.44336 1328.082 770.82086 1328.082 807.05859 L 1328.082 1331.9902 C 1328.082 1368.2278 1357.4596 1397.6055 1393.6973 1397.6055 C 1574.6013 1397.6055 1721.7793 1250.4274 1721.7793 1069.5234 C 1721.7793 962.41998 1670.1787 867.15471 1590.5469 807.23828 L 1590.5469 712.94141 C 1590.5469 387.30975 1325.6273 122.39453 1000 122.39453 z M 1492.4668 1492.5254 C 1467.7089 1492.5254 1447.7162 1499.5196 1432.4902 1513.5078 C 1417.264 1527.496 1409.6523 1546.1878 1409.6523 1569.584 L 1409.6523 1595.9512 L 1375.3008 1595.9512 L 1375.3008 1640.7012 L 1409.6523 1640.7012 L 1409.6523 1801.3184 L 1469.627 1801.3184 L 1469.627 1640.7012 L 1516.4199 1640.7012 L 1516.4199 1595.9512 L 1469.627 1595.9512 L 1469.627 1572.9258 C 1469.627 1550.1485 1479.9022 1538.7598 1500.4512 1538.7598 C 1507.7548 1538.7598 1515.492 1540.3694 1523.6621 1543.5879 L 1523.6621 1496.4238 C 1515.492 1493.8243 1505.0933 1492.5254 1492.4668 1492.5254 z M 1054.0664 1497.3535 L 1054.0664 1801.3184 L 1114.043 1801.3184 L 1114.043 1699.748 L 1114.7852 1699.748 L 1183.1172 1801.3184 L 1255.9043 1801.3184 L 1174.2051 1692.8789 L 1250.334 1595.9512 L 1178.8457 1595.9512 L 1114.7852 1690.8359 L 1114.043 1690.8359 L 1114.043 1497.3535 L 1054.0664 1497.3535 z M 260.57422 1513.6934 L 260.57422 1801.3184 L 315.9082 1801.3184 L 315.9082 1638.6582 C 315.9082 1626.5268 315.70717 1614.4107 315.30469 1602.3105 C 314.90236 1590.2104 314.2988 1578.1261 313.49414 1566.0566 L 314.33008 1566.0566 L 315.16406 1566.0566 C 317.33037 1576.6406 319.17277 1585.1651 320.68945 1591.6328 C 322.20614 1598.1005 323.39714 1602.5113 324.26367 1604.8633 L 396.12305 1801.3184 L 444.95703 1801.3184 L 515.88867 1603.0078 C 518.11689 1596.8183 521.08905 1584.5013 524.80273 1566.0566 L 526.28711 1566.0566 C 524.67782 1590.4431 523.87305 1610.6828 523.87305 1626.7754 L 523.87305 1801.3184 L 584.40625 1801.3184 L 584.40625 1513.6934 L 497.69141 1513.6934 L 435.48828 1687.1211 C 431.40322 1698.6335 427.44098 1712.2514 423.60352 1727.9727 L 422.30469 1727.9727 C 420.44784 1715.3462 416.91986 1701.8517 411.7207 1687.4922 L 380.71094 1600.5918 L 349.70117 1513.6934 L 305.13867 1513.6934 L 260.57422 1513.6934 z M 725.39453 1590.9375 C 691.22866 1590.9375 663.99483 1600.5931 643.69336 1619.9043 C 623.51571 1639.2154 613.42773 1665.768 613.42773 1699.5625 C 613.42773 1732.4905 623.20691 1758.549 642.76562 1777.7363 C 662.44812 1796.7999 689.00067 1806.3301 722.42383 1806.3301 C 756.46588 1806.3301 783.45283 1796.3656 803.38281 1776.4355 C 823.31294 1756.5055 833.27734 1729.7059 833.27734 1696.0352 C 833.27734 1663.9737 823.5599 1638.473 804.125 1619.5332 C 784.6901 1600.4696 758.44631 1590.9375 725.39453 1590.9375 z M 971.73828 1590.9375 C 937.07726 1590.9375 909.34932 1601.0254 888.55273 1621.2031 C 867.75604 1641.257 857.35742 1668.7398 857.35742 1703.6484 C 857.35742 1733.9768 867.0131 1758.6728 886.32422 1777.7363 C 905.63541 1796.7999 930.95082 1806.3301 962.26953 1806.3301 C 988.76043 1806.3301 1009.1854 1802.1227 1023.5449 1793.7051 L 1023.5449 1745.0547 C 1008.3188 1755.2054 992.72076 1760.2812 976.75195 1760.2812 C 958.67863 1760.2812 944.38139 1754.8966 933.85938 1744.127 C 923.33728 1733.2335 918.07617 1718.3785 918.07617 1699.5625 C 918.07617 1680.1276 923.58428 1664.8402 934.60156 1653.6992 C 945.74259 1642.5582 960.47423 1636.9863 978.79492 1636.9863 C 995.01144 1636.9863 1009.9898 1642.0004 1023.7305 1652.0273 L 1023.7305 1600.5938 C 1012.4657 1594.1567 995.13446 1590.9375 971.73828 1590.9375 z M 1519.7617 1595.9512 L 1602.7637 1800.9453 L 1591.4355 1827.8711 C 1584.7508 1843.7161 1573.2386 1851.6387 1556.8984 1851.6387 C 1547.2428 1851.6387 1538.3921 1849.3478 1530.3457 1844.7676 L 1530.3457 1892.8594 C 1538.8872 1896.0779 1550.8955 1897.6875 1566.3691 1897.6875 C 1605.6103 1897.6875 1635.0715 1871.6907 1654.7539 1819.6992 L 1739.4258 1595.9512 L 1680.0078 1595.9512 L 1638.9707 1725.002 C 1635.7522 1735.6479 1633.7102 1744.2497 1632.8438 1750.8105 L 1631.7305 1750.8105 C 1630.6163 1741.155 1628.8215 1732.4296 1626.3457 1724.6309 L 1586.2363 1595.9512 L 1519.7617 1595.9512 z M 1279.8594 1596.6523 L 1279.8594 1802.0195 L 1339.6484 1802.0195 L 1339.6484 1596.6523 L 1279.8594 1596.6523 z M 723.9082 1636.9863 C 756.21719 1636.9863 772.37305 1657.0407 772.37305 1697.1484 C 772.37305 1739.2368 756.34268 1760.2812 724.28125 1760.2812 C 690.85809 1760.2812 674.14648 1739.7946 674.14648 1698.8203 C 674.14648 1679.1378 678.47925 1663.9103 687.14453 1653.1406 C 695.93356 1642.3709 708.18692 1636.9863 723.9082 1636.9863 z M 1310.125 1836.7422 C 1300.098 1836.7422 1291.8049 1839.7742 1285.2441 1845.8398 C 1278.6833 1851.9055 1275.4023 1859.3957 1275.4023 1868.3086 C 1275.4023 1877.469 1278.6195 1884.8955 1285.0566 1890.5898 C 1291.6174 1896.4079 1299.9743 1899.3184 1310.125 1899.3184 C 1320.5233 1899.3184 1328.9399 1896.3462 1335.377 1890.4043 C 1341.8139 1884.5862 1345.0332 1877.2214 1345.0332 1868.3086 C 1345.0332 1859.272 1341.7522 1851.72 1335.1914 1845.6543 C 1328.6306 1839.7124 1320.2757 1836.7422 1310.125 1836.7422 z "
       transform="scale(0.26458334)" />
  </g>
</svg>
