<?xml version="1.0" encoding="UTF-8" standalone="no"?>
<!-- Created with Inkscape (http://www.inkscape.org/) -->

<svg
   width="2000"
   height="500"
   viewBox="0 0 529.16667 132.29167"
   version="1.1"
   id="svg5"
   xmlns="http://www.w3.org/2000/svg"
   xmlns:svg="http://www.w3.org/2000/svg">
  <defs
     id="defs2" />
  <g
     id="layer1">
    <path
       id="XMLID_792_"
       style="fill:#ffffff;stroke:none;stroke-width:0.999999"
       transform="scale(0.26458334)"
       d="m 1712.166,52.513672 c -24.7579,0 -44.7505,6.994224 -59.9765,20.982422 -15.2262,13.988197 -22.8379,32.679986 -22.8379,56.076176 v 26.36718 H 1595 v 44.75 h 34.3516 v 160.61719 h 59.9746 V 200.68945 h 46.7929 v -44.75 h -46.7929 v -23.02539 c 0,-22.77724 10.2752,-34.166013 30.8242,-34.166013 7.3036,0 15.0408,1.609603 23.2109,4.828123 V 56.412109 c -8.1701,-2.599576 -18.5688,-3.898437 -31.1953,-3.898437 z m -438.4004,4.828125 V 361.30664 h 59.9766 V 259.73633 h 0.7422 l 68.332,101.57031 h 72.7871 l -81.6992,-108.43945 76.1289,-96.92774 h -71.4883 l -64.0605,94.88477 h -0.7422 V 57.341797 Z M 202.88672,67.025391 c -74.439,0 -135.000001,60.559999 -135.000001,134.999999 v 21.55664 c -18.204,13.697 -30,35.47599 -30,59.95899 0,41.355 33.644002,75 75.000001,75 8.284,0 15,-6.716 15,-15 v -120 c 0,-8.28401 -6.716,-15 -15,-15 -5.136,0 -10.152,0.52076 -15.000001,1.50976 v -8.02344 c 0,-57.897 47.103001,-104.999996 105.000001,-104.999996 57.897,0 105,47.102996 105,104.999996 v 8.02344 c -4.848,-0.989 -9.864,-1.50976 -15,-1.50976 -8.284,0 -15,6.71599 -15,15 v 120 c 0,8.284 6.716,15 15,15 41.355,0 75,-33.645 75,-75 0,-24.484 -11.796,-46.26199 -30,-59.95899 v -21.55664 c 0,-74.44 -60.561,-134.999999 -135,-134.999999 z m 277.38672,6.65625 V 361.30664 h 55.33398 V 198.64648 c 0,-12.13136 -0.2012,-24.24701 -0.60355,-36.3472 -0.40236,-12.10018 -1.00587,-24.1849 -1.81051,-36.25436 h 0.83496 0.83496 c 2.16633,10.58399 4.00797,19.10965 5.52466,25.57732 1.51669,6.46766 2.70843,10.87732 3.57495,13.22932 l 71.85938,196.45508 h 48.83398 l 70.93164,-198.31055 c 2.22821,-6.18946 5.20037,-18.50655 8.91406,-36.95117 h 1.48438 c -1.60927,24.3865 -2.41406,44.62613 -2.41406,60.71875 v 174.54297 h 60.5332 V 73.681641 H 717.39062 L 655.1875,247.10938 c -4.08506,11.51241 -8.04731,25.13031 -11.88477,40.85156 h -1.29882 c -1.85684,-12.62652 -5.38484,-26.1209 -10.58399,-40.48047 L 600.41016,160.58106 569.40039,73.681641 h -44.56347 z m 464.82031,77.244139 c -34.16587,0 -61.39972,9.65566 -81.70117,28.9668 -20.17766,19.31114 -30.26563,45.8637 -30.26563,79.6582 0,32.92797 9.77917,58.98648 29.33789,78.17383 19.6825,19.06356 46.23506,28.59375 79.65821,28.59375 34.04208,0 61.02895,-9.96445 80.95895,-29.89453 19.9301,-19.93009 29.8946,-46.72969 29.8946,-80.40039 0,-32.06145 -9.7175,-57.56218 -29.1524,-76.50196 -19.4349,-19.06356 -45.67868,-28.5957 -78.73045,-28.5957 z m 246.34375,0 c -34.661,0 -62.3889,10.08796 -83.1855,30.26563 -20.7967,20.05387 -31.1954,47.5367 -31.1954,82.44531 0,30.32839 9.6557,55.02432 28.9668,74.08789 19.3112,19.06356 44.6267,28.59375 75.9454,28.59375 26.4909,0 46.9158,-4.20733 61.2753,-12.625 v -48.65039 c -15.2261,10.15073 -30.8241,15.22656 -46.7929,15.22656 -18.0733,0 -32.3706,-5.38462 -42.8926,-16.1543 -10.5221,-10.89346 -15.7832,-25.74847 -15.7832,-44.56445 0,-19.43493 5.5081,-34.72224 16.5254,-45.86328 11.141,-11.14105 25.8726,-16.71289 44.1933,-16.71289 16.2165,0 31.195,5.01407 44.9356,15.04101 v -51.43359 c -11.2648,-6.43705 -28.596,-9.65625 -51.9922,-9.65625 z m 548.0234,5.01367 83.002,204.99414 -11.3281,26.92579 c -6.6847,15.84501 -18.1969,23.76757 -34.5371,23.76757 -9.6556,0 -18.5064,-2.29091 -26.5528,-6.87109 v 48.0918 c 8.5415,3.21852 20.5498,4.82812 36.0235,4.82812 39.2412,0 68.7023,-25.99675 88.3847,-77.98828 l 84.6719,-223.74805 h -59.418 l -41.0371,129.05078 c -3.2185,10.64589 -5.2604,19.24776 -6.1269,25.8086 h -1.1133 c -1.1141,-9.65557 -2.909,-18.38095 -5.3848,-26.17969 l -40.1094,-128.67969 z m -239.9023,0.70117 v 205.36719 h 59.7891 V 156.64062 Z m -555.95118,40.33399 c 32.30902,0 48.46485,20.05436 48.46485,60.16211 0,42.08839 -16.03037,63.13281 -48.0918,63.13281 -33.42314,0 -50.13477,-20.48666 -50.13477,-61.46094 0,-19.6825 4.33278,-34.91 12.99805,-45.67968 8.78904,-10.76968 21.04242,-16.1543 36.76367,-16.1543 z m 586.21678,199.75586 c -10.027,0 -18.32,3.03197 -24.8808,9.09765 -6.5609,6.06567 -9.8418,13.5559 -9.8418,22.46876 0,9.16041 3.2172,16.58693 9.6543,22.28124 6.5608,5.81811 14.9176,8.72852 25.0683,8.72852 10.3983,0 18.8149,-2.97217 25.252,-8.91406 6.437,-5.81811 9.6562,-13.18287 9.6562,-22.0957 0,-9.03665 -3.281,-16.58864 -9.8418,-22.6543 -6.5608,-5.9419 -14.9157,-8.91211 -25.0664,-8.91211 z" />
  </g>
</svg>
